<svg xmlns="http://www.w3.org/2000/svg" viewBox="0 0 32 32">
  <!-- Flag pole -->
  <rect x="6" y="4" width="2" height="24" fill="#654321"/>

  <!-- Flag base (checkered pattern) -->
  <rect x="8" y="6" width="16" height="12" fill="#ffffff"/>

  <!-- Checkered flag pattern -->
  <g fill="#000000">
    <!-- Row 1 -->
    <rect x="8" y="6" width="2" height="2"/>
    <rect x="12" y="6" width="2" height="2"/>
    <rect x="16" y="6" width="2" height="2"/>
    <rect x="20" y="6" width="2" height="2"/>

    <!-- Row 2 -->
    <rect x="10" y="8" width="2" height="2"/>
    <rect x="14" y="8" width="2" height="2"/>
    <rect x="18" y="8" width="2" height="2"/>
    <rect x="22" y="8" width="2" height="2"/>

    <!-- Row 3 -->
    <rect x="8" y="10" width="2" height="2"/>
    <rect x="12" y="10" width="2" height="2"/>
    <rect x="16" y="10" width="2" height="2"/>
    <rect x="20" y="10" width="2" height="2"/>

    <!-- Row 4 -->
    <rect x="10" y="12" width="2" height="2"/>
    <rect x="14" y="12" width="2" height="2"/>
    <rect x="18" y="12" width="2" height="2"/>
    <rect x="22" y="12" width="2" height="2"/>

    <!-- Row 5 -->
    <rect x="8" y="14" width="2" height="2"/>
    <rect x="12" y="14" width="2" height="2"/>
    <rect x="16" y="14" width="2" height="2"/>
    <rect x="20" y="14" width="2" height="2"/>

    <!-- Row 6 -->
    <rect x="10" y="16" width="2" height="2"/>
    <rect x="14" y="16" width="2" height="2"/>
    <rect x="18" y="16" width="2" height="2"/>
    <rect x="22" y="16" width="2" height="2"/>
  </g>

  <!-- Flag wavy effect -->
  <path d="M24 6 Q26 8 24 10 Q26 12 24 14 Q26 16 24 18" fill="none" stroke="#cccccc" stroke-width="1"/>

  <!-- Pole cap -->
  <circle cx="7" cy="4" r="1.5" fill="#8b4513"/>
</svg>