<svg xmlns="http://www.w3.org/2000/svg" viewBox="0 0 32 32">
  <!-- Lightning bolt main shape -->
  <path d="M12 2 L8 14 L14 14 L10 30 L20 18 L16 18 L20 2 Z" fill="#f1c40f"/>

  <!-- Lightning bolt outline -->
  <path d="M12 2 L8 14 L14 14 L10 30 L20 18 L16 18 L20 2 Z" fill="none" stroke="#f39c12" stroke-width="1"/>

  <!-- Inner lightning detail -->
  <path d="M14 4 L11 12 L15 12 L12 26 L18 16 L15 16 L18 4 Z" fill="#fff" opacity="0.6"/>

  <!-- Electric sparks around -->
  <g fill="#f1c40f">
    <circle cx="6" cy="8" r="1"/>
    <circle cx="26" cy="10" r="0.8"/>
    <circle cx="4" cy="20" r="0.8"/>
    <circle cx="28" cy="22" r="1"/>
    <circle cx="8" cy="28" r="0.6"/>
    <circle cx="24" cy="6" r="0.6"/>
  </g>

  <!-- Energy aura -->
  <circle cx="16" cy="16" r="14" fill="none" stroke="#f1c40f" stroke-width="0.5" opacity="0.3"/>
  <circle cx="16" cy="16" r="16" fill="none" stroke="#f39c12" stroke-width="0.3" opacity="0.2"/>

  <!-- Small lightning details -->
  <g fill="#e67e22" opacity="0.7">
    <path d="M13 6 L12 8 L14 8 L13 10"/>
    <path d="M17 12 L16 14 L18 14 L17 16"/>
    <path d="M15 20 L14 22 L16 22 L15 24"/>
  </g>
</svg>