<svg xmlns="http://www.w3.org/2000/svg" viewBox="0 0 32 32">
  <!-- Sandy background -->
  <rect x="0" y="0" width="32" height="32" fill="#f39c12"/>

  <!-- Beach/sand texture with grains -->
  <g fill="#e67e22" opacity="0.6">
    <circle cx="6" cy="8" r="0.8"/>
    <circle cx="12" cy="6" r="0.6"/>
    <circle cx="18" cy="10" r="0.7"/>
    <circle cx="24" cy="7" r="0.5"/>
    <circle cx="28" cy="12" r="0.6"/>
    <circle cx="4" cy="16" r="0.5"/>
    <circle cx="10" cy="14" r="0.8"/>
    <circle cx="16" cy="18" r="0.6"/>
    <circle cx="22" cy="16" r="0.7"/>
    <circle cx="28" cy="20" r="0.5"/>
    <circle cx="8" cy="24" r="0.6"/>
    <circle cx="14" cy="26" r="0.5"/>
    <circle cx="20" cy="24" r="0.8"/>
    <circle cx="26" cy="28" r="0.6"/>
  </g>

  <!-- Lighter sand grains -->
  <g fill="#f4d03f" opacity="0.5">
    <circle cx="8" cy="4" r="0.4"/>
    <circle cx="15" cy="8" r="0.3"/>
    <circle cx="21" cy="5" r="0.4"/>
    <circle cx="26" cy="10" r="0.3"/>
    <circle cx="5" cy="12" r="0.4"/>
    <circle cx="11" cy="20" r="0.3"/>
    <circle cx="17" cy="22" r="0.4"/>
    <circle cx="25" cy="18" r="0.3"/>
    <circle cx="6" cy="28" r="0.4"/>
    <circle cx="18" cy="30" r="0.3"/>
  </g>

  <!-- Palm tree silhouette in corner -->
  <g fill="#27ae60" opacity="0.2">
    <rect x="26" y="20" width="1" height="8"/>
    <path d="M26 20 Q24 18 22 20 Q24 19 26 20"/>
    <path d="M27 20 Q29 18 31 20 Q29 19 27 20"/>
    <path d="M26 22 Q24 20 22 22 Q24 21 26 22"/>
  </g>
</svg>