<svg xmlns="http://www.w3.org/2000/svg" viewBox="0 0 32 32">
  <!-- White/light blue background -->
  <rect x="0" y="0" width="32" height="32" fill="#f0f8ff"/>

  <!-- Snowflake -->
  <g stroke="#87ceeb" stroke-width="1.5" fill="none" stroke-linecap="round">
    <!-- Main cross -->
    <line x1="16" y1="6" x2="16" y2="26"/>
    <line x1="6" y1="16" x2="26" y2="16"/>

    <!-- Diagonal lines -->
    <line x1="10.6" y1="10.6" x2="21.4" y2="21.4"/>
    <line x1="21.4" y1="10.6" x2="10.6" y2="21.4"/>

    <!-- Branch decorations -->
    <g stroke-width="1">
      <line x1="14" y1="8" x2="16" y2="6"/>
      <line x1="18" y1="8" x2="16" y2="6"/>
      <line x1="14" y1="24" x2="16" y2="26"/>
      <line x1="18" y1="24" x2="16" y2="26"/>
      <line x1="8" y1="14" x2="6" y2="16"/>
      <line x1="8" y1="18" x2="6" y2="16"/>
      <line x1="24" y1="14" x2="26" y2="16"/>
      <line x1="24" y1="18" x2="26" y2="16"/>
    </g>
  </g>

  <!-- Snow particles -->
  <g fill="#ffffff" opacity="0.8">
    <circle cx="8" cy="8" r="1"/>
    <circle cx="24" cy="8" r="0.8"/>
    <circle cx="8" cy="24" r="0.8"/>
    <circle cx="24" cy="24" r="1"/>
    <circle cx="5" cy="16" r="0.6"/>
    <circle cx="27" cy="16" r="0.6"/>
  </g>
</svg>