<svg xmlns="http://www.w3.org/2000/svg" viewBox="0 0 32 32">
  <!-- Stone base -->
  <ellipse cx="16" cy="20" rx="14" ry="10" fill="#7f8c8d"/>

  <!-- Main stone body -->
  <path d="M8 20 Q6 18 8 16 Q10 12 12 10 Q14 8 16 8 Q18 8 20 10 Q22 12 24 16 Q26 18 24 20 Q22 22 20 22 Q18 24 16 24 Q14 24 12 22 Q10 22 8 20 Z" fill="#95a5a6"/>

  <!-- Stone texture and cracks -->
  <g stroke="#6c7b7d" stroke-width="0.8" fill="none">
    <path d="M10 14 Q12 12 14 14"/>
    <path d="M18 12 Q20 14 22 16"/>
    <path d="M12 18 Q14 20 16 18"/>
  </g>

  <!-- Moss spots -->
  <g fill="#27ae60" opacity="0.4">
    <ellipse cx="12" cy="16" rx="2" ry="1.5"/>
    <ellipse cx="20" cy="18" rx="1.5" ry="1"/>
  </g>

  <!-- Highlights -->
  <g fill="#ffffff" opacity="0.3">
    <ellipse cx="14" cy="11" rx="2" ry="1"/>
    <ellipse cx="19" cy="13" rx="1.5" ry="0.8"/>
  </g>
</svg>