<svg xmlns="http://www.w3.org/2000/svg" viewBox="0 0 32 32">
  <!-- Crystal ball base -->
  <ellipse cx="16" cy="26" rx="8" ry="3" fill="#34495e"/>

  <!-- Main crystal ball -->
  <circle cx="16" cy="16" r="10" fill="#e67e22" opacity="0.8"/>

  <!-- Inner magical essence -->
  <circle cx="16" cy="16" r="7" fill="#f39c12" opacity="0.6"/>
  <circle cx="16" cy="16" r="4" fill="#f1c40f" opacity="0.8"/>

  <!-- Crystal ball reflection -->
  <ellipse cx="13" cy="11" rx="3" ry="4" fill="#ffffff" opacity="0.4"/>

  <!-- Magical sparkles around -->
  <g fill="#f1c40f">
    <polygon points="8,8 9,10 11,9 9,11 8,13 7,11 5,12 7,10"/>
    <polygon points="24,6 25,8 27,7 25,9 24,11 23,9 21,10 23,8"/>
    <polygon points="26,20 27,22 29,21 27,23 26,25 25,23 23,24 25,22"/>
    <polygon points="6,22 7,24 9,23 7,25 6,27 5,25 3,26 5,24"/>
  </g>

  <!-- Inner mystical swirls -->
  <g fill="none" stroke="#d35400" stroke-width="1" opacity="0.6">
    <path d="M12 12 Q16 8 20 12 Q16 16 12 12"/>
    <path d="M12 20 Q16 16 20 20 Q16 24 12 20"/>
  </g>

  <!-- Base details -->
  <ellipse cx="16" cy="25" rx="6" ry="2" fill="#2c3e50"/>
</svg>