<svg xmlns="http://www.w3.org/2000/svg" viewBox="0 0 32 32">
  <!-- Blue water background -->
  <rect x="0" y="0" width="32" height="32" fill="#3498db"/>

  <!-- Wave patterns -->
  <g fill="#2980b9" opacity="0.6">
    <path d="M0 8 Q8 4 16 8 Q24 12 32 8 L32 16 Q24 20 16 16 Q8 12 0 16 Z"/>
    <path d="M0 20 Q8 16 16 20 Q24 24 32 20 L32 28 Q24 32 16 28 Q8 24 0 28 Z"/>
  </g>

  <!-- Lighter wave highlights -->
  <g fill="#5dade2" opacity="0.4">
    <path d="M0 6 Q8 2 16 6 Q24 10 32 6 L32 10 Q24 14 16 10 Q8 6 0 10 Z"/>
    <path d="M0 18 Q8 14 16 18 Q24 22 32 18 L32 22 Q24 26 16 22 Q8 18 0 22 Z"/>
  </g>

  <!-- Water droplets -->
  <g fill="#ffffff" opacity="0.3">
    <circle cx="8" cy="12" r="1"/>
    <circle cx="20" cy="8" r="0.8"/>
    <circle cx="26" cy="24" r="1"/>
    <circle cx="6" cy="26" r="0.8"/>
  </g>
</svg>